#tb 0: 1/10
0,          0,          0,        1,    58814, 0x5caad04b
0,          1,          1,        1,    58814, 0x98d8ceb8
0,          2,          2,        1,    58814, 0x8925cdb0
0,          3,          3,        1,    58814, 0x6ffc02c3
